<?xml version="1.0" encoding="utf-8"?>
<!-- Generator: Adobe Illustrator 24.3.0, SVG Export Plug-In . SVG Version: 6.00 Build 0)  -->
<svg version="1.1" id="Layer_1" xmlns="http://www.w3.org/2000/svg" xmlns:xlink="http://www.w3.org/1999/xlink" x="0px" y="0px"
	 viewBox="0 0 2000 2000" style="enable-background:new 0 0 2000 2000;" xml:space="preserve">
<style type="text/css">
	.st0{fill:#333333;}
</style>
<g>
	<path class="st0" d="M1269.07,1049.35c-15.17-15.71-29.04-33.29-40.77-51.69c-6.04-9.48-13.27-20.54-15.51-31.76
		c-2.16-10.8,4.38-19.65,7.52-29.37c13.62-42.23-16.79-96.56-40.94-129.99c-12.2-16.89-29.16-30.1-46.91-40.71
		c-44.5-26.6-97.86-39.36-149.45-39.83c-56.06-0.52-113.14,14.76-156.98,50.77c-3.56,4.55-6.66,9.05-9.34,13.52h221.44l0,42.44
		l93.45,0c2.24-6.78,8.62-11.68,16.15-11.68c9.4,0,17.02,7.62,17.02,17.02c0,9.4-7.62,17.02-17.02,17.02
		c-7.53,0-13.91-4.9-16.15-11.68h-104.14l0-42.44h-216.4c-8.74,19.1-9.87,37.54-5.52,55.93H988.7l34.19,58.95l58.8,0
		c2.24-6.78,8.62-11.68,16.15-11.68c9.4,0,17.02,7.62,17.02,17.02c0,9.4-7.62,17.02-17.02,17.02c-7.53,0-13.91-4.9-16.15-11.68
		h-64.96l-34.19-58.95h-173.9c5.27,15.15,13.97,30.34,24.92,45.91h108.94c2.24-6.78,8.62-11.68,16.15-11.68
		c9.4,0,17.02,7.62,17.02,17.02c0,9.4-7.62,17.02-17.02,17.02c-7.53,0-13.91-4.9-16.15-11.68h-50.54l24.55,42.96l78.16,0
		c2.24-6.78,8.62-11.68,16.15-11.68c9.4,0,17.02,7.62,17.02,17.02c0,9.4-7.62,17.02-17.02,17.02c-7.53,0-13.91-4.9-16.15-11.68
		h-84.36l-30.65-53.64h-38.29c18.85,24.94,42.63,51,66.6,79.51h58.38l10.83,19.23l70.47,0c2.24-6.78,8.62-11.68,16.15-11.68
		c9.4,0,17.02,7.62,17.02,17.02c0,9.4-7.62,17.02-17.02,17.02c-7.53,0-13.91-4.9-16.15-11.68h-76.72l-10.83-19.23h-43.25
		c55.26,67.24,108.39,148.37,100.95,259.66c0,0,19.16-52.46,73.98-34.78s102.27,28.38,104.34-3.64
		c2.06-32.02-8.55-47.94,12.08-61.79c21.29-9.51,12.01-26.08,12.01-26.08s14.37-10.61,6.85-24.76
		c-7.52-14.15,1.99-30.28,20.56-38.46C1266.19,1076.32,1281.45,1062.17,1269.07,1049.35z"/>
	<g>
		<path class="st0" d="M755.46,776.76c-6.13,10.17-11.2,20.82-14.26,31.8c-0.44,1.35-0.71,2.75-1.01,4.13
			c-0.27,1.39-0.65,2.75-0.87,4.13c-0.38,2.79-0.88,5.53-0.96,8.32l-0.13,2.07l-0.07,1.03l0.01,1.04l0.02,4.13
			c0.03,1.37,0.21,2.75,0.3,4.11l0.16,2.05l0.31,2.04c1.47,10.87,5.29,21.28,10.17,31.23c2.57,4.94,5.23,9.84,8.28,14.59
			c2.94,4.79,6.27,9.4,9.55,14.04c13.49,18.39,28.97,35.78,44.54,53.32c7.83,8.74,15.62,17.61,23.47,26.49
			c7.79,8.93,15.49,18.01,23.09,27.22c7.53,9.27,14.92,18.71,22.05,28.4c7.05,9.75,13.92,19.66,20.33,29.92
			c6.37,10.27,12.51,20.74,17.91,31.63c1.4,2.69,2.67,5.46,4,8.18c1.34,2.72,2.58,5.5,3.8,8.28l1.83,4.17l1.72,4.23
			c1.13,2.82,2.32,5.61,3.34,8.48c4.32,11.36,7.91,23.01,10.72,34.82c2.82,11.81,4.93,23.76,6.17,35.78
			c1.17,12.03,1.59,24.08,1.19,36.05c-0.48,11.98-1.79,23.86-3.91,35.55c-0.74-11.87-1.69-23.6-3.23-35.2
			c-1.66-11.59-3.77-23.03-6.48-34.28l-2.14-8.4c-0.73-2.79-1.61-5.55-2.4-8.31c-0.78-2.77-1.7-5.5-2.58-8.24l-1.33-4.1
			c-0.45-1.36-0.97-2.71-1.46-4.06c-1.01-2.69-1.91-5.41-2.99-8.07l-3.16-8l-3.41-7.89c-1.16-2.62-2.4-5.21-3.58-7.81
			c-1.16-2.61-2.49-5.16-3.75-7.73l-1.91-3.84l-2.03-3.79c-2.63-5.08-5.44-10.08-8.3-15.05c-5.78-9.9-11.9-19.62-18.4-29.12
			c-6.49-9.5-13.2-18.89-20.25-28.06c-6.96-9.24-14.19-18.33-21.6-27.32c-7.33-9.06-14.87-18-22.44-26.98
			c-7.51-9.03-15.19-17.99-22.7-27.17c-7.51-9.18-15.05-18.43-22.24-28.05c-7.24-9.58-14.21-19.48-20.6-29.91
			c-3.18-5.23-6.22-10.56-8.98-16.1c-2.83-5.48-5.33-11.21-7.54-17.05c-1.01-2.98-2.13-5.89-2.95-8.95c-0.42-1.52-0.92-3-1.27-4.55
			l-1.04-4.63c-0.38-1.52-0.55-3.12-0.82-4.68c-0.23-1.57-0.54-3.11-0.64-4.71l-0.43-4.74c-0.09-1.58-0.09-3.18-0.11-4.76
			l-0.02-2.37l0.14-2.38c0.11-1.58,0.15-3.16,0.34-4.73l0.64-4.69l0.16-1.17c0.07-0.39,0.16-0.77,0.25-1.16l0.52-2.3
			c0.59-3.08,1.62-6.05,2.52-9.02c0.48-1.47,1.11-2.9,1.67-4.34c0.58-1.43,1.13-2.87,1.85-4.23
			C739.83,794.96,747.09,785.18,755.46,776.76z"/>
	</g>
</g>
</svg>
